G04 #@! TF.GenerationSoftware,KiCad,Pcbnew,9.0.6*
G04 #@! TF.CreationDate,2025-12-07T17:06:00+09:00*
G04 #@! TF.ProjectId,VME_J1_Terminator_type2,564d455f-4a31-45f5-9465-726d696e6174,0.0*
G04 #@! TF.SameCoordinates,PX63c5fe0PY55bb8f0*
G04 #@! TF.FileFunction,Soldermask,Top*
G04 #@! TF.FilePolarity,Negative*
%FSLAX46Y46*%
G04 Gerber Fmt 4.6, Leading zero omitted, Abs format (unit mm)*
G04 Created by KiCad (PCBNEW 9.0.6) date 2025-12-07 17:06:00*
%MOMM*%
%LPD*%
G01*
G04 APERTURE LIST*
G04 Aperture macros list*
%AMRoundRect*
0 Rectangle with rounded corners*
0 $1 Rounding radius*
0 $2 $3 $4 $5 $6 $7 $8 $9 X,Y pos of 4 corners*
0 Add a 4 corners polygon primitive as box body*
4,1,4,$2,$3,$4,$5,$6,$7,$8,$9,$2,$3,0*
0 Add four circle primitives for the rounded corners*
1,1,$1+$1,$2,$3*
1,1,$1+$1,$4,$5*
1,1,$1+$1,$6,$7*
1,1,$1+$1,$8,$9*
0 Add four rect primitives between the rounded corners*
20,1,$1+$1,$2,$3,$4,$5,0*
20,1,$1+$1,$4,$5,$6,$7,0*
20,1,$1+$1,$6,$7,$8,$9,0*
20,1,$1+$1,$8,$9,$2,$3,0*%
G04 Aperture macros list end*
%ADD10R,1.600000X1.600000*%
%ADD11C,1.600000*%
%ADD12RoundRect,0.250000X-0.550000X-0.550000X0.550000X-0.550000X0.550000X0.550000X-0.550000X0.550000X0*%
%ADD13C,2.850000*%
%ADD14RoundRect,0.249999X0.525001X0.525001X-0.525001X0.525001X-0.525001X-0.525001X0.525001X-0.525001X0*%
%ADD15C,1.550000*%
%ADD16C,0.605000*%
G04 APERTURE END LIST*
D10*
X56515000Y26670000D03*
D11*
X53975000Y26670000D03*
X51435000Y26670000D03*
X48895000Y26670000D03*
X46355000Y26670000D03*
X43815000Y26670000D03*
X41275000Y26670000D03*
X38735000Y26670000D03*
X36195000Y26670000D03*
X59710000Y17780000D03*
X62210000Y17780000D03*
D10*
X62865000Y22225000D03*
D11*
X65405000Y22225000D03*
X67945000Y22225000D03*
X70485000Y22225000D03*
X73025000Y22225000D03*
X75565000Y22225000D03*
X78105000Y22225000D03*
X80645000Y22225000D03*
X83185000Y22225000D03*
D10*
X62865000Y40005000D03*
D11*
X65405000Y40005000D03*
X67945000Y40005000D03*
X70485000Y40005000D03*
X73025000Y40005000D03*
X75565000Y40005000D03*
X78105000Y40005000D03*
X80645000Y40005000D03*
X83185000Y40005000D03*
D10*
X27305000Y35560000D03*
D11*
X24765000Y35560000D03*
X22225000Y35560000D03*
X19685000Y35560000D03*
X17145000Y35560000D03*
X14605000Y35560000D03*
X12065000Y35560000D03*
X9525000Y35560000D03*
X6985000Y35560000D03*
D10*
X4445000Y22225000D03*
D11*
X6985000Y22225000D03*
X9525000Y22225000D03*
X12065000Y22225000D03*
X14605000Y22225000D03*
X17145000Y22225000D03*
X19685000Y22225000D03*
X22225000Y22225000D03*
X24765000Y22225000D03*
X30500000Y35560000D03*
X33000000Y35560000D03*
X30500000Y17780000D03*
X33000000Y17780000D03*
D10*
X33655000Y40005000D03*
D11*
X36195000Y40005000D03*
X38735000Y40005000D03*
X41275000Y40005000D03*
X43815000Y40005000D03*
X46355000Y40005000D03*
X48895000Y40005000D03*
X51435000Y40005000D03*
X53975000Y40005000D03*
D10*
X33655000Y31115000D03*
D11*
X36195000Y31115000D03*
X38735000Y31115000D03*
X41275000Y31115000D03*
X43815000Y31115000D03*
X46355000Y31115000D03*
X48895000Y31115000D03*
X51435000Y31115000D03*
X53975000Y31115000D03*
X88920000Y35560000D03*
X91420000Y35560000D03*
D10*
X85725000Y35560000D03*
D11*
X83185000Y35560000D03*
X80645000Y35560000D03*
X78105000Y35560000D03*
X75565000Y35560000D03*
X73025000Y35560000D03*
X70485000Y35560000D03*
X67945000Y35560000D03*
X65405000Y35560000D03*
D10*
X4445000Y40005000D03*
D11*
X6985000Y40005000D03*
X9525000Y40005000D03*
X12065000Y40005000D03*
X14605000Y40005000D03*
X17145000Y40005000D03*
X19685000Y40005000D03*
X22225000Y40005000D03*
X24765000Y40005000D03*
D10*
X85725000Y26670000D03*
D11*
X83185000Y26670000D03*
X80645000Y26670000D03*
X78105000Y26670000D03*
X75565000Y26670000D03*
X73025000Y26670000D03*
X70485000Y26670000D03*
X67945000Y26670000D03*
X65405000Y26670000D03*
X88920000Y26670000D03*
X91420000Y26670000D03*
D10*
X56515000Y35560000D03*
D11*
X53975000Y35560000D03*
X51435000Y35560000D03*
X48895000Y35560000D03*
X46355000Y35560000D03*
X43815000Y35560000D03*
X41275000Y35560000D03*
X38735000Y35560000D03*
X36195000Y35560000D03*
D12*
X92115000Y10160000D03*
D11*
X94615000Y10160000D03*
X59710000Y35560000D03*
X62210000Y35560000D03*
D10*
X56515000Y17780000D03*
D11*
X53975000Y17780000D03*
X51435000Y17780000D03*
X48895000Y17780000D03*
X46355000Y17780000D03*
X43815000Y17780000D03*
X41275000Y17780000D03*
X38735000Y17780000D03*
X36195000Y17780000D03*
X59710000Y26670000D03*
X62210000Y26670000D03*
X30500000Y26670000D03*
X33000000Y26670000D03*
D10*
X62865000Y31115000D03*
D11*
X65405000Y31115000D03*
X67945000Y31115000D03*
X70485000Y31115000D03*
X73025000Y31115000D03*
X75565000Y31115000D03*
X78105000Y31115000D03*
X80645000Y31115000D03*
X83185000Y31115000D03*
D10*
X27305000Y26670000D03*
D11*
X24765000Y26670000D03*
X22225000Y26670000D03*
X19685000Y26670000D03*
X17145000Y26670000D03*
X14605000Y26670000D03*
X12065000Y26670000D03*
X9525000Y26670000D03*
X6985000Y26670000D03*
X88920000Y17780000D03*
X91420000Y17780000D03*
D10*
X4445000Y31115000D03*
D11*
X6985000Y31115000D03*
X9525000Y31115000D03*
X12065000Y31115000D03*
X14605000Y31115000D03*
X17145000Y31115000D03*
X19685000Y31115000D03*
X22225000Y31115000D03*
X24765000Y31115000D03*
D13*
X93345000Y2550000D03*
X4445000Y2550000D03*
D14*
X9525000Y5090000D03*
D15*
X12065000Y5090000D03*
X14605000Y5090000D03*
X17145000Y5090000D03*
X19685000Y5090000D03*
X22225000Y5090000D03*
X24765000Y5090000D03*
X27305000Y5090000D03*
X29845000Y5090000D03*
X32385000Y5090000D03*
X34925000Y5090000D03*
X37465000Y5090000D03*
X40005000Y5090000D03*
X42545000Y5090000D03*
X45085000Y5090000D03*
X47625000Y5090000D03*
X50165000Y5090000D03*
X52705000Y5090000D03*
X55245000Y5090000D03*
X57785000Y5090000D03*
X60325000Y5090000D03*
X62865000Y5090000D03*
X65405000Y5090000D03*
X67945000Y5090000D03*
X70485000Y5090000D03*
X73025000Y5090000D03*
X75565000Y5090000D03*
X78105000Y5090000D03*
X80645000Y5090000D03*
X83185000Y5090000D03*
X85725000Y5090000D03*
X88265000Y5090000D03*
X9525000Y7630000D03*
X12065000Y7630000D03*
X14605000Y7630000D03*
X17145000Y7630000D03*
X19685000Y7630000D03*
X22225000Y7630000D03*
X24765000Y7630000D03*
X27305000Y7630000D03*
X29845000Y7630000D03*
X32385000Y7630000D03*
X34925000Y7630000D03*
X37465000Y7630000D03*
X40005000Y7630000D03*
X42545000Y7630000D03*
X45085000Y7630000D03*
X47625000Y7630000D03*
X50165000Y7630000D03*
X52705000Y7630000D03*
X55245000Y7630000D03*
X57785000Y7630000D03*
X60325000Y7630000D03*
X62865000Y7630000D03*
X65405000Y7630000D03*
X67945000Y7630000D03*
X70485000Y7630000D03*
X73025000Y7630000D03*
X75565000Y7630000D03*
X78105000Y7630000D03*
X80645000Y7630000D03*
X83185000Y7630000D03*
X85725000Y7630000D03*
X88265000Y7630000D03*
X9525000Y10170000D03*
X12065000Y10170000D03*
X14605000Y10170000D03*
X17145000Y10170000D03*
X19685000Y10170000D03*
X22225000Y10170000D03*
X24765000Y10170000D03*
X27305000Y10170000D03*
X29845000Y10170000D03*
X32385000Y10170000D03*
X34925000Y10170000D03*
X37465000Y10170000D03*
X40005000Y10170000D03*
X42545000Y10170000D03*
X45085000Y10170000D03*
X47625000Y10170000D03*
X50165000Y10170000D03*
X52705000Y10170000D03*
X55245000Y10170000D03*
X57785000Y10170000D03*
X60325000Y10170000D03*
X62865000Y10170000D03*
X65405000Y10170000D03*
X67945000Y10170000D03*
X70485000Y10170000D03*
X73025000Y10170000D03*
X75565000Y10170000D03*
X78105000Y10170000D03*
X80645000Y10170000D03*
X83185000Y10170000D03*
X85725000Y10170000D03*
X88265000Y10170000D03*
D10*
X85725000Y17780000D03*
D11*
X83185000Y17780000D03*
X80645000Y17780000D03*
X78105000Y17780000D03*
X75565000Y17780000D03*
X73025000Y17780000D03*
X70485000Y17780000D03*
X67945000Y17780000D03*
X65405000Y17780000D03*
D10*
X33655000Y22225000D03*
D11*
X36195000Y22225000D03*
X38735000Y22225000D03*
X41275000Y22225000D03*
X43815000Y22225000D03*
X46355000Y22225000D03*
X48895000Y22225000D03*
X51435000Y22225000D03*
X53975000Y22225000D03*
D10*
X27305000Y17780000D03*
D11*
X24765000Y17780000D03*
X22225000Y17780000D03*
X19685000Y17780000D03*
X17145000Y17780000D03*
X14605000Y17780000D03*
X12065000Y17780000D03*
X9525000Y17780000D03*
X6985000Y17780000D03*
D16*
X88265000Y43180000D03*
X94615000Y43180000D03*
X94615000Y35560000D03*
X94615000Y26670000D03*
X94615000Y17780000D03*
X2540000Y10795000D03*
X2540000Y17780000D03*
X2540000Y26670000D03*
X2540000Y35560000D03*
X2540000Y43180000D03*
X9525000Y43180000D03*
X20320000Y43180000D03*
X29845000Y43180000D03*
X40640000Y43180000D03*
X52070000Y43180000D03*
X60325000Y43180000D03*
X69215000Y43180000D03*
X80645000Y43180000D03*
M02*
