M48
; DRILL file {KiCad 9.0.6} date 2025-12-07T17:06:20+0900
; FORMAT={-:-/ absolute / metric / decimal}
; #@! TF.CreationDate,2025-12-07T17:06:20+09:00
; #@! TF.GenerationSoftware,Kicad,Pcbnew,9.0.6
; #@! TF.FileFunction,MixedPlating,1,2
FMAT,2
METRIC
; #@! TA.AperFunction,Plated,PTH,ViaDrill
T1C0.300
; #@! TA.AperFunction,Plated,PTH,ComponentDrill
T2C0.800
; #@! TA.AperFunction,Plated,PTH,ComponentDrill
T3C1.000
; #@! TA.AperFunction,NonPlated,NPTH,ComponentDrill
T4C2.850
%
G90
G05
T1
X2.54Y43.18
X2.54Y35.56
X2.54Y26.67
X2.54Y17.78
X2.54Y10.795
X9.525Y43.18
X20.32Y43.18
X29.845Y43.18
X40.64Y43.18
X52.07Y43.18
X60.325Y43.18
X69.215Y43.18
X80.645Y43.18
X88.265Y43.18
X94.615Y43.18
X94.615Y35.56
X94.615Y26.67
X94.615Y17.78
T2
X4.445Y40.005
X4.445Y31.115
X4.445Y22.225
X6.985Y40.005
X6.985Y35.56
X6.985Y31.115
X6.985Y26.67
X6.985Y22.225
X6.985Y17.78
X9.525Y40.005
X9.525Y35.56
X9.525Y31.115
X9.525Y26.67
X9.525Y22.225
X9.525Y17.78
X12.065Y40.005
X12.065Y35.56
X12.065Y31.115
X12.065Y26.67
X12.065Y22.225
X12.065Y17.78
X14.605Y40.005
X14.605Y35.56
X14.605Y31.115
X14.605Y26.67
X14.605Y22.225
X14.605Y17.78
X17.145Y40.005
X17.145Y35.56
X17.145Y31.115
X17.145Y26.67
X17.145Y22.225
X17.145Y17.78
X19.685Y40.005
X19.685Y35.56
X19.685Y31.115
X19.685Y26.67
X19.685Y22.225
X19.685Y17.78
X22.225Y40.005
X22.225Y35.56
X22.225Y31.115
X22.225Y26.67
X22.225Y22.225
X22.225Y17.78
X24.765Y40.005
X24.765Y35.56
X24.765Y31.115
X24.765Y26.67
X24.765Y22.225
X24.765Y17.78
X27.305Y35.56
X27.305Y26.67
X27.305Y17.78
X30.5Y35.56
X30.5Y26.67
X30.5Y17.78
X33.0Y35.56
X33.0Y26.67
X33.0Y17.78
X33.655Y40.005
X33.655Y31.115
X33.655Y22.225
X36.195Y40.005
X36.195Y35.56
X36.195Y31.115
X36.195Y26.67
X36.195Y22.225
X36.195Y17.78
X38.735Y40.005
X38.735Y35.56
X38.735Y31.115
X38.735Y26.67
X38.735Y22.225
X38.735Y17.78
X41.275Y40.005
X41.275Y35.56
X41.275Y31.115
X41.275Y26.67
X41.275Y22.225
X41.275Y17.78
X43.815Y40.005
X43.815Y35.56
X43.815Y31.115
X43.815Y26.67
X43.815Y22.225
X43.815Y17.78
X46.355Y40.005
X46.355Y35.56
X46.355Y31.115
X46.355Y26.67
X46.355Y22.225
X46.355Y17.78
X48.895Y40.005
X48.895Y35.56
X48.895Y31.115
X48.895Y26.67
X48.895Y22.225
X48.895Y17.78
X51.435Y40.005
X51.435Y35.56
X51.435Y31.115
X51.435Y26.67
X51.435Y22.225
X51.435Y17.78
X53.975Y40.005
X53.975Y35.56
X53.975Y31.115
X53.975Y26.67
X53.975Y22.225
X53.975Y17.78
X56.515Y35.56
X56.515Y26.67
X56.515Y17.78
X59.71Y35.56
X59.71Y26.67
X59.71Y17.78
X62.21Y35.56
X62.21Y26.67
X62.21Y17.78
X62.865Y40.005
X62.865Y31.115
X62.865Y22.225
X65.405Y40.005
X65.405Y35.56
X65.405Y31.115
X65.405Y26.67
X65.405Y22.225
X65.405Y17.78
X67.945Y40.005
X67.945Y35.56
X67.945Y31.115
X67.945Y26.67
X67.945Y22.225
X67.945Y17.78
X70.485Y40.005
X70.485Y35.56
X70.485Y31.115
X70.485Y26.67
X70.485Y22.225
X70.485Y17.78
X73.025Y40.005
X73.025Y35.56
X73.025Y31.115
X73.025Y26.67
X73.025Y22.225
X73.025Y17.78
X75.565Y40.005
X75.565Y35.56
X75.565Y31.115
X75.565Y26.67
X75.565Y22.225
X75.565Y17.78
X78.105Y40.005
X78.105Y35.56
X78.105Y31.115
X78.105Y26.67
X78.105Y22.225
X78.105Y17.78
X80.645Y40.005
X80.645Y35.56
X80.645Y31.115
X80.645Y26.67
X80.645Y22.225
X80.645Y17.78
X83.185Y40.005
X83.185Y35.56
X83.185Y31.115
X83.185Y26.67
X83.185Y22.225
X83.185Y17.78
X85.725Y35.56
X85.725Y26.67
X85.725Y17.78
X88.92Y35.56
X88.92Y26.67
X88.92Y17.78
X91.42Y35.56
X91.42Y26.67
X91.42Y17.78
X92.115Y10.16
X94.615Y10.16
T3
X9.525Y10.17
X9.525Y7.63
X9.525Y5.09
X12.065Y10.17
X12.065Y7.63
X12.065Y5.09
X14.605Y10.17
X14.605Y7.63
X14.605Y5.09
X17.145Y10.17
X17.145Y7.63
X17.145Y5.09
X19.685Y10.17
X19.685Y7.63
X19.685Y5.09
X22.225Y10.17
X22.225Y7.63
X22.225Y5.09
X24.765Y10.17
X24.765Y7.63
X24.765Y5.09
X27.305Y10.17
X27.305Y7.63
X27.305Y5.09
X29.845Y10.17
X29.845Y7.63
X29.845Y5.09
X32.385Y10.17
X32.385Y7.63
X32.385Y5.09
X34.925Y10.17
X34.925Y7.63
X34.925Y5.09
X37.465Y10.17
X37.465Y7.63
X37.465Y5.09
X40.005Y10.17
X40.005Y7.63
X40.005Y5.09
X42.545Y10.17
X42.545Y7.63
X42.545Y5.09
X45.085Y10.17
X45.085Y7.63
X45.085Y5.09
X47.625Y10.17
X47.625Y7.63
X47.625Y5.09
X50.165Y10.17
X50.165Y7.63
X50.165Y5.09
X52.705Y10.17
X52.705Y7.63
X52.705Y5.09
X55.245Y10.17
X55.245Y7.63
X55.245Y5.09
X57.785Y10.17
X57.785Y7.63
X57.785Y5.09
X60.325Y10.17
X60.325Y7.63
X60.325Y5.09
X62.865Y10.17
X62.865Y7.63
X62.865Y5.09
X65.405Y10.17
X65.405Y7.63
X65.405Y5.09
X67.945Y10.17
X67.945Y7.63
X67.945Y5.09
X70.485Y10.17
X70.485Y7.63
X70.485Y5.09
X73.025Y10.17
X73.025Y7.63
X73.025Y5.09
X75.565Y10.17
X75.565Y7.63
X75.565Y5.09
X78.105Y10.17
X78.105Y7.63
X78.105Y5.09
X80.645Y10.17
X80.645Y7.63
X80.645Y5.09
X83.185Y10.17
X83.185Y7.63
X83.185Y5.09
X85.725Y10.17
X85.725Y7.63
X85.725Y5.09
X88.265Y10.17
X88.265Y7.63
X88.265Y5.09
T4
X4.445Y2.55
X93.345Y2.55
M30
